<?xml version="1.0" standalone="no"?><!DOCTYPE svg PUBLIC "-//W3C//DTD SVG 1.1//EN" "http://www.w3.org/Graphics/SVG/1.1/DTD/svg11.dtd"><svg height="600" node-id="1" sillyvg="true" template-height="600" template-width="1161" version="1.1" viewBox="0 0 1161 600" width="1161" xmlns="http://www.w3.org/2000/svg" xmlns:xlink="http://www.w3.org/1999/xlink"><defs node-id="47"></defs><path d="M 511.00 131.20 L 68.80 131.20 L 67.30 127.90 L 65.50 121.20 L 65.30 114.20 L 65.70 110.80 L 67.90 104.00 L 69.60 100.90 L 73.80 95.40 L 79.20 90.90 L 82.20 89.20 L 88.80 86.80 L 96.20 85.80 L 116.90 86.70 L 122.40 86.40 L 125.90 85.90 L 129.40 85.00 L 132.70 83.50 L 136.00 81.50 L 138.80 79.10 L 141.20 76.30 L 145.20 69.80 L 146.70 66.20 L 148.50 60.60 L 149.80 54.90 L 152.70 37.80 L 154.00 32.20 L 156.50 25.00 L 158.10 21.60 L 160.70 17.50 L 163.70 13.90 L 167.20 10.60 L 171.00 7.80 L 175.10 5.40 L 179.50 3.40 L 184.10 1.90 L 188.80 0.80 L 193.60 0.20 L 198.50 0.00 L 203.30 0.30 L 208.10 1.10 L 217.30 3.90 L 225.90 8.10 L 231.20 11.60 L 236.30 15.60 L 241.00 20.00 L 245.40 24.80 L 249.40 29.90 L 257.30 42.00 L 262.10 48.40 L 265.90 51.90 L 268.20 53.30 L 270.90 54.50 L 273.80 55.20 L 279.80 55.60 L 285.90 54.70 L 290.30 53.40 L 298.70 49.60 L 314.90 41.00 L 319.20 39.30 L 323.60 38.20 L 328.10 37.50 L 332.70 37.30 L 337.30 37.70 L 341.90 38.40 L 346.30 39.70 L 350.60 41.40 L 354.70 43.50 L 358.60 46.00 L 362.10 49.00 L 365.30 52.20 L 368.10 55.90 L 370.80 60.10 L 377.70 73.70 L 380.20 78.00 L 383.10 81.90 L 385.20 84.20 L 387.70 86.20 L 390.50 87.90 L 394.20 89.50 L 398.20 90.40 L 406.30 91.10 L 414.50 91.10 L 439.10 89.80 L 447.20 89.70 L 455.30 90.00 L 465.80 91.60 L 471.10 92.90 L 475.60 94.50 L 484.10 98.70 L 488.10 101.30 L 493.10 105.30 L 497.70 109.70 L 501.80 114.50 L 504.60 118.40 L 509.20 126.70 L 511.00 131.20 Z" fill="#f3f5fd" fill-rule="nonzero" node-id="49" stroke="none" target-height="131.2" target-width="445.7" target-x="65.3" target-y="0"></path><path d="M 1129.40 247.30 L 779.40 247.30 L 780.20 242.90 L 783.00 234.50 L 785.00 230.60 L 787.30 227.00 L 789.90 223.60 L 792.90 220.50 L 796.20 217.90 L 799.70 215.70 L 804.40 213.50 L 809.30 212.00 L 814.30 211.10 L 819.40 210.60 L 829.90 210.70 L 853.50 213.20 L 861.50 213.60 L 866.80 213.60 L 872.00 213.20 L 880.80 211.30 L 887.80 208.30 L 891.10 206.30 L 894.10 203.80 L 896.90 201.10 L 911.10 185.10 L 915.20 181.20 L 919.70 177.70 L 924.50 174.50 L 929.40 171.70 L 934.60 169.30 L 939.90 167.40 L 945.20 166.10 L 950.60 165.30 L 954.80 165.00 L 963.00 165.70 L 967.10 166.60 L 972.40 168.50 L 977.50 170.80 L 997.60 181.30 L 1003.20 183.40 L 1008.80 185.20 L 1014.60 186.40 L 1020.40 187.20 L 1026.30 187.50 L 1032.30 187.30 L 1050.60 184.70 L 1060.70 183.70 L 1068.80 184.20 L 1073.80 185.30 L 1078.60 186.90 L 1083.20 189.20 L 1087.50 191.90 L 1091.70 195.00 L 1095.60 198.50 L 1102.70 206.20 L 1110.00 216.30 L 1129.40 247.30 Z" fill="#f3f5fd" fill-rule="nonzero" node-id="51" stroke="none" target-height="82.3" target-width="350" target-x="779.4" target-y="165"></path><path d="M 38.10 599.90 L 1160.90 599.90 L 1157.60 592.20 L 1153.90 584.70 L 1149.70 577.50 L 1145.10 570.60 L 1140.10 564.20 L 1134.80 558.20 L 1125.90 550.10 L 1116.10 543.30 L 1110.90 540.40 L 1105.40 537.90 L 1099.80 535.80 L 1093.80 534.00 L 1082.00 532.00 L 1070.20 531.50 L 1062.30 531.80 L 1046.30 533.70 L 1010.10 540.80 L 990.10 544.00 L 982.10 544.70 L 968.30 544.90 L 956.50 543.60 L 950.70 542.30 L 944.10 540.30 L 937.80 537.90 L 931.70 535.10 L 919.90 528.30 L 905.80 518.40 L 881.20 499.40 L 871.10 492.20 L 860.70 485.40 L 850.10 479.10 L 839.30 473.20 L 828.20 467.60 L 816.80 462.60 L 805.40 457.90 L 793.70 453.70 L 781.90 450.00 L 770.00 446.70 L 757.90 443.80 L 745.70 441.40 L 733.50 439.40 L 721.20 437.90 L 708.80 436.80 L 696.40 436.20 L 684.10 436.10 L 671.70 436.40 L 659.30 437.20 L 647.00 438.50 L 634.70 440.30 L 622.60 442.50 L 610.50 445.20 L 598.50 448.40 L 586.70 452.10 L 571.40 457.60 L 556.40 463.60 L 497.10 490.20 L 482.10 496.50 L 467.10 502.30 L 446.60 509.00 L 436.20 511.80 L 415.70 515.80 L 395.10 518.30 L 381.30 519.30 L 367.40 519.70 L 353.50 519.70 L 332.50 519.00 L 311.50 517.80 L 248.40 513.30 L 227.40 512.30 L 217.60 512.20 L 207.40 512.50 L 196.70 513.20 L 186.10 514.30 L 175.30 515.90 L 164.30 517.90 L 153.40 520.30 L 142.60 523.10 L 131.80 526.30 L 121.30 530.00 L 111.10 534.20 L 101.20 538.70 L 93.90 542.40 L 80.40 550.60 L 74.20 555.00 L 68.10 559.80 L 62.50 564.80 L 57.30 570.00 L 52.50 575.40 L 48.20 581.20 L 44.30 587.20 L 41.00 593.40 L 38.10 599.90 Z" fill="#f3f5fd" fill-rule="nonzero" node-id="53" stroke="none" target-height="163.80002" target-width="1122.8" target-x="38.1" target-y="436.1"></path><g node-id="145"><g node-id="147"><path d="M 116.40 188.50 L 118.70 186.30 L 120.10 183.80 L 121.60 179.50 L 122.60 172.80 L 122.40 163.40 L 138.40 160.40 L 138.50 170.50 L 139.80 177.30 L 142.00 182.30 L 144.70 185.30 Z" fill="#eda59f" fill-rule="nonzero" group-id="1,3" node-id="59" stroke="none" target-height="28.100006" target-width="28.299995" target-x="116.4" target-y="160.4"></path><g node-id="151"><path d="M 141.40 181.30 L 128.20 171.20 L 138.60 171.10 L 139.10 174.60 L 140.10 178.00 L 141.40 181.30 Z" fill="#000000" fill-opacity="0.15" fill-rule="nonzero" group-id="1,3,7" node-id="63" stroke="none" target-height="10.199997" target-width="13.199997" target-x="128.2" target-y="171.1"></path></g><path d="M 113.40 155.20 L 114.10 158.30 L 115.30 161.30 L 116.80 164.10 L 118.70 166.40 L 121.80 168.80 L 126.90 170.70 L 132.90 171.90 L 143.00 172.30 L 145.50 172.00 L 147.50 171.40 L 149.00 170.40 L 151.30 167.40 L 152.80 162.20 L 153.20 158.40 L 153.50 144.70 L 152.70 134.00 L 151.80 129.60 L 150.90 126.90 L 149.90 124.80 L 148.70 123.40 L 146.90 122.00 L 144.70 121.00 L 139.40 119.80 L 133.40 119.90 L 128.90 120.70 L 124.50 122.10 L 121.70 123.40 L 117.10 126.70 L 115.30 128.80 L 113.90 131.00 L 113.10 133.50 L 112.50 136.90 L 112.20 144.60 L 113.40 155.20 Z" fill="#eda59f" fill-rule="nonzero" group-id="1,3" node-id="66" stroke="none" target-height="52.5" target-width="41.300003" target-x="112.2" target-y="119.8"></path><path d="M 160.70 118.80 L 160.40 116.70 L 159.40 114.60 L 158.40 113.30 L 155.30 111.30 L 153.30 110.90 L 150.90 110.80 L 147.80 111.30 L 144.80 112.30 L 141.10 114.00 L 136.60 116.80 L 132.00 116.90 L 127.50 117.40 L 123.10 118.30 L 120.00 119.40 L 114.90 122.30 L 111.40 125.80 L 109.90 127.90 L 108.70 130.30 L 107.80 133.20 L 107.30 136.10 L 107.20 139.60 L 107.60 143.70 L 109.40 151.90 L 112.40 159.30 L 114.30 162.30 L 116.40 164.90 L 120.20 168.10 L 121.70 169.00 L 122.70 169.10 L 123.20 168.00 L 124.50 162.10 L 126.10 150.10 L 126.40 142.10 L 127.40 139.40 L 128.40 138.10 L 130.00 137.00 L 132.90 136.00 L 149.10 135.80 L 151.90 135.30 L 156.00 133.70 L 158.70 131.40 L 159.90 129.30 L 160.60 127.10 L 160.90 124.80 L 160.70 118.80 Z" fill="#0f1011" fill-rule="nonzero" group-id="1,3" node-id="68" stroke="none" target-height="58.300003" target-width="53.699997" target-x="107.2" target-y="110.8"></path><g node-id="152"><path d="M 139.80 148.80 L 139.70 149.40 L 139.00 150.20 L 137.80 150.20 L 137.10 149.40 L 137.10 148.30 L 137.80 147.50 L 139.00 147.50 L 139.40 147.80 L 139.80 148.80 Z" fill="#0f1011" fill-rule="nonzero" group-id="1,3,8" node-id="72" stroke="none" target-height="2.699997" target-width="2.699997" target-x="137.1" target-y="147.5"></path><path d="M 151.30 147.90 L 150.90 148.90 L 149.80 149.30 L 148.80 148.90 L 148.40 147.90 L 148.80 146.90 L 149.80 146.40 L 150.90 146.90 L 151.30 147.90 Z" fill="#0f1011" fill-rule="nonzero" group-id="1,3,8" node-id="74" stroke="none" target-height="2.9000092" target-width="2.9000092" target-x="148.4" target-y="146.4"></path><path d="M 152.30 144.80 L 148.50 144.70 L 147.80 144.10 L 148.00 143.60 L 152.40 143.40 L 153.00 144.10 L 152.30 144.80 Z" fill="#0f1011" fill-rule="nonzero" group-id="1,3,8" node-id="76" stroke="none" target-height="1.4000092" target-width="5.199997" target-x="147.8" target-y="143.4"></path><path d="M 135.30 146.20 L 134.60 145.60 L 135.10 144.80 L 138.90 143.90 L 139.60 144.10 L 139.50 145.10 L 135.30 146.20 Z" fill="#0f1011" fill-rule="nonzero" group-id="1,3,8" node-id="78" stroke="none" target-height="2.300003" target-width="5" target-x="134.6" target-y="143.9"></path></g><path d="M 130.90 152.40 L 130.80 154.00 L 130.30 155.50 L 129.50 156.90 L 128.30 158.00 L 126.80 158.70 L 125.20 159.10 L 123.60 159.00 L 122.10 158.50 L 120.70 157.60 L 119.70 156.40 L 118.90 155.00 L 118.60 153.40 L 118.70 151.70 L 119.10 150.20 L 120.00 148.90 L 121.20 147.80 L 122.60 147.10 L 124.20 146.70 L 126.40 146.90 L 127.90 147.40 L 129.10 148.20 L 130.60 150.70 L 130.90 152.40 Z" fill="#eda59f" fill-rule="nonzero" group-id="1,3" node-id="81" stroke="none" target-height="12.400009" target-width="12.299995" target-x="118.6" target-y="146.7"></path><g node-id="153"><path d="M 144.80 156.90 L 144.30 156.40 L 144.70 155.90 L 147.60 155.00 L 145.60 150.40 L 145.80 149.70 L 146.50 150.00 L 148.80 155.50 L 144.80 156.90 Z" fill="#000000" fill-opacity="0.15" fill-rule="nonzero" group-id="1,3,9" node-id="85" stroke="none" target-height="7.199997" target-width="4.5" target-x="144.3" target-y="149.7"></path></g></g><g node-id="148"><path d="M 223.30 589.10 L 202.40 586.60 L 204.50 567.70 L 204.50 568.00 L 225.50 568.00 L 223.30 589.10 Z" fill="#eda59f" fill-rule="nonzero" group-id="1,4" node-id="91" stroke="none" target-height="21.399963" target-width="23.100006" target-x="202.4" target-y="567.7"></path><path d="M 129.60 591.60 L 108.60 591.60 L 108.70 568.00 L 129.70 568.00 L 129.60 591.60 Z" fill="#eda59f" fill-rule="nonzero" group-id="1,4" node-id="93" stroke="none" target-height="23.599976" target-width="21.099998" target-x="108.6" target-y="568"></path><path d="M 194.50 586.40 L 230.50 577.90 L 219.20 532.00 L 208.40 485.90 L 198.00 439.60 L 188.00 393.20 L 168.70 300.50 L 168.40 300.50 L 167.70 295.20 L 91.60 290.50 L 89.40 321.80 L 88.60 340.20 L 89.40 373.80 L 91.30 412.40 L 103.20 583.80 L 140.10 581.90 L 138.80 542.50 L 133.80 424.40 L 133.00 398.10 L 132.50 345.70 L 154.40 425.60 L 165.10 465.70 L 175.40 505.90 L 185.30 546.10 L 194.50 586.40 Z" fill="#55affc" fill-rule="nonzero" group-id="1,4" node-id="95" stroke="none" target-height="295.90002" target-width="141.9" target-x="88.6" target-y="290.5"></path><path d="M 155.10 599.70 L 157.30 599.10 L 158.10 598.40 L 159.10 596.50 L 159.00 594.20 L 157.60 592.40 L 132.10 583.60 L 130.60 583.40 L 123.80 586.50 L 120.80 587.20 L 117.80 587.30 L 114.60 586.80 L 111.70 585.70 L 108.20 583.80 L 107.30 583.90 L 106.70 584.50 L 106.40 585.30 L 106.40 597.20 L 106.60 598.30 L 107.20 599.10 L 108.10 599.70 L 109.10 599.90 Z" fill="#c1d8ed" fill-rule="nonzero" group-id="1,4" node-id="97" stroke="none" target-height="16.5" target-width="52.700005" target-x="106.4" target-y="583.4"></path><path d="M 248.90 599.70 L 250.00 599.60 L 251.90 598.40 L 252.90 596.50 L 252.70 594.20 L 251.30 592.40 L 225.80 583.60 L 224.40 583.40 L 217.50 586.50 L 214.60 587.20 L 211.50 587.30 L 208.40 586.80 L 205.40 585.70 L 201.90 583.80 L 201.00 583.90 L 200.40 584.50 L 200.20 585.30 L 200.20 597.20 L 200.40 598.30 L 200.90 599.10 L 201.80 599.70 L 202.80 599.90 Z" fill="#c1d8ed" fill-rule="nonzero" group-id="1,4" node-id="99" stroke="none" target-height="16.5" target-width="52.699997" target-x="200.2" target-y="583.4"></path></g><g node-id="149"><path d="M 222.00 198.40 L 222.90 194.80 L 225.20 190.70 L 226.90 189.00 L 228.30 188.30 L 230.00 188.00 L 253.70 190.90 L 260.40 192.10 L 262.20 192.70 L 263.20 193.50 L 263.00 194.50 L 262.20 195.40 L 260.80 196.20 L 254.90 197.90 L 243.90 199.80 L 240.90 200.60 L 239.10 201.40 L 237.10 203.00 Z" fill="#eda59f" fill-rule="nonzero" group-id="1,5" node-id="104" stroke="none" target-height="15" target-width="41.200012" target-x="222" target-y="188"></path><path d="M 229.00 188.10 L 240.60 186.50 L 244.20 186.80 L 244.80 187.20 L 244.20 188.60 L 240.80 191.20 Z" fill="#eda59f" fill-rule="nonzero" group-id="1,5" node-id="106" stroke="none" target-height="4.699997" target-width="15.800003" target-x="229" target-y="186.5"></path></g><g node-id="150"><path d="M 41.20 198.40 L 40.20 194.80 L 38.00 190.70 L 36.30 189.00 L 34.90 188.30 L 33.20 188.00 L 9.50 190.90 L 2.80 192.10 L 1.00 192.70 L 0.00 193.50 L 0.20 194.50 L 1.00 195.40 L 2.40 196.20 L 8.30 197.90 L 19.30 199.80 L 22.30 200.60 L 24.10 201.40 L 26.10 203.00 Z" fill="#eda59f" fill-rule="nonzero" group-id="1,6" node-id="111" stroke="none" target-height="15" target-width="41.2" target-x="0" target-y="188"></path><path d="M 34.20 188.10 L 22.60 186.50 L 19.00 186.80 L 18.40 187.20 L 19.00 188.60 L 22.40 191.20 Z" fill="#eda59f" fill-rule="nonzero" group-id="1,6" node-id="113" stroke="none" target-height="4.699997" target-width="15.800001" target-x="18.4" target-y="186.5"></path></g><path d="M 148.90 163.70 L 143.90 163.20 L 139.80 163.70 L 140.50 161.90 L 141.30 161.10 L 142.50 160.40 L 144.40 160.10 L 146.30 160.40 L 147.50 161.10 L 148.30 161.90 L 148.90 163.70 Z" fill="#ffffff" fill-rule="nonzero" group-id="1" node-id="116" stroke="none" target-height="3.5999908" target-width="9.099991" target-x="139.8" target-y="160.1"></path><path d="M 222.00 191.40 L 192.90 235.10 L 170.10 192.30 L 169.90 192.40 L 168.20 189.90 L 165.90 187.70 L 163.20 185.90 L 160.10 184.60 L 156.30 183.60 L 148.60 183.00 L 148.30 183.80 L 147.50 184.60 L 143.30 186.10 L 139.60 186.70 L 131.30 187.10 L 122.90 186.70 L 119.20 186.00 L 114.80 184.50 L 113.90 183.70 L 113.60 182.90 L 108.80 183.20 L 104.50 183.90 L 100.70 185.00 L 97.00 186.50 L 94.00 188.40 L 91.50 190.40 L 88.30 194.50 L 64.40 236.10 L 39.40 190.30 L 20.20 200.70 L 54.50 263.50 L 56.90 266.50 L 60.20 268.50 L 63.90 269.20 L 66.00 269.00 L 69.50 267.70 L 72.40 265.30 L 91.20 233.40 L 93.90 243.90 L 94.80 249.10 L 95.10 254.00 L 94.90 259.30 L 93.60 267.80 L 92.10 273.60 L 87.40 287.20 L 86.30 292.60 L 86.30 295.20 L 86.60 296.70 L 88.50 299.40 L 90.20 300.60 L 95.90 303.20 L 99.90 304.30 L 106.10 305.40 L 113.40 306.30 L 128.90 306.90 L 136.90 306.70 L 152.10 305.40 L 164.60 303.20 L 169.00 301.90 L 171.60 300.70 L 173.20 299.60 L 173.90 298.50 L 174.90 295.60 L 175.10 292.80 L 174.90 289.90 L 171.40 273.20 L 170.50 266.60 L 170.00 259.40 L 169.90 250.00 L 170.50 239.40 L 182.30 261.40 L 184.60 264.40 L 187.70 266.40 L 191.40 267.20 L 193.70 267.10 L 197.00 265.90 L 199.80 263.80 L 201.00 262.30 L 240.10 203.50 Z" fill="#2f3235" fill-rule="nonzero" group-id="1" node-id="118" stroke="none" target-height="124" target-width="219.90001" target-x="20.2" target-y="182.9"></path><path d="M 148.60 183.00 L 148.30 185.90 L 147.30 189.00 L 145.10 192.80 L 143.40 194.50 L 141.50 195.80 L 139.10 196.70 L 136.20 197.20 L 133.10 197.20 L 127.50 196.10 L 125.00 195.10 L 120.50 192.50 L 117.70 190.10 L 115.70 187.60 L 114.60 185.90 L 113.60 182.90 L 148.60 183.00 Z" fill="#eda59f" fill-rule="nonzero" group-id="1" node-id="120" stroke="none" target-height="14.300003" target-width="35.000008" target-x="113.6" target-y="182.9"></path></g><path d="M 1043.90 593.60 L 1058.60 588.40 L 1065.80 585.20 L 1073.00 581.40 L 1077.60 578.50 L 1086.90 571.30 L 1091.40 567.20 L 1095.80 562.40 L 1100.40 557.00 L 1103.70 552.00 L 1105.00 549.30 L 1105.80 546.50 L 1105.80 542.80 L 1105.40 541.00 L 1104.40 539.00 L 1103.10 537.40 L 1101.40 535.90 L 1097.40 534.00 L 1095.30 533.50 L 1090.30 533.40 L 1086.60 533.90 L 1075.30 537.20 L 1068.60 539.80 L 1062.10 542.70 L 1048.10 550.40 L 1046.50 550.50 L 1045.00 550.10 L 1043.60 549.20 L 1042.70 547.80 L 1042.20 546.30 L 1042.30 544.70 L 1042.90 543.20 L 1044.50 540.80 L 1049.60 535.50 L 1053.00 532.90 L 1071.60 520.50 L 1080.30 514.20 L 1088.70 507.60 L 1096.90 500.60 L 1104.30 493.50 L 1110.90 485.60 L 1113.50 481.30 L 1115.60 476.70 L 1116.70 473.30 L 1117.20 469.80 L 1117.20 467.40 L 1116.10 463.00 L 1114.70 460.80 L 1113.10 459.00 L 1111.10 457.60 L 1106.40 455.70 L 1103.80 455.20 L 1099.80 455.00 L 1095.90 455.50 L 1091.50 456.60 L 1087.40 458.10 L 1083.40 460.10 L 1075.90 465.10 L 1067.30 472.70 L 1054.20 485.60 L 1051.30 488.00 L 1045.10 492.10 L 1041.80 493.60 L 1038.30 494.60 L 1032.70 495.10 L 1029.00 494.00 L 1027.60 492.80 L 1026.60 491.30 L 1026.00 489.60 L 1025.80 485.80 L 1026.20 483.90 L 1027.30 481.40 L 1028.80 479.00 L 1047.10 458.50 L 1054.00 450.10 L 1060.50 441.30 L 1068.20 429.10 L 1071.60 422.70 L 1074.60 416.10 L 1077.20 409.30 L 1079.30 402.20 L 1080.80 395.10 L 1081.70 387.90 L 1082.10 380.70 L 1081.90 375.30 L 1081.30 370.00 L 1080.30 364.70 L 1078.80 359.40 L 1077.20 354.90 L 1075.10 350.60 L 1073.40 347.90 L 1069.30 343.10 L 1066.80 341.00 L 1064.20 339.30 L 1061.30 337.90 L 1058.20 337.00 L 1055.10 336.60 L 1051.90 336.70 L 1049.10 337.40 L 1046.50 338.30 L 1044.00 339.70 L 1040.60 342.30 L 1037.50 345.40 L 1034.80 349.00 L 1032.50 352.70 L 1029.00 359.20 L 1026.20 366.00 L 1023.90 372.90 L 1020.50 387.30 L 1017.80 405.80 L 1015.50 428.30 L 1013.10 445.70 L 1011.60 451.80 L 1010.30 455.70 L 1008.50 459.40 L 1006.30 463.00 L 1004.60 464.60 L 1003.20 465.10 L 1002.00 465.20 L 1000.80 464.90 L 999.10 463.80 L 997.60 462.20 L 996.30 460.20 L 993.30 452.20 L 988.10 433.60 L 986.10 427.50 L 983.70 421.70 L 979.70 414.50 L 977.20 411.10 L 972.50 406.50 L 969.90 404.60 L 967.00 403.20 L 964.00 402.20 L 960.80 401.90 L 958.20 402.20 L 955.70 402.90 L 951.20 405.40 L 947.50 409.10 L 944.80 413.60 L 943.80 416.10 L 943.00 419.90 L 942.70 423.80 L 942.80 427.80 L 943.40 431.70 L 945.40 439.40 L 948.00 446.20 L 951.10 452.80 L 954.70 459.20 L 958.80 465.30 L 963.10 471.10 L 975.40 485.70 L 977.50 488.90 L 979.20 492.30 L 980.20 496.00 L 980.50 498.60 L 980.30 501.20 L 979.70 503.70 L 978.70 506.00 L 977.20 508.20 L 975.40 510.10 L 972.30 511.90 L 968.80 512.30 L 966.90 511.90 L 961.60 509.40 L 942.50 498.70 L 937.30 496.20 L 930.10 493.90 L 926.60 493.30 L 923.10 493.30 L 919.60 493.80 L 916.20 495.00 L 913.80 496.40 L 911.70 498.10 L 909.90 500.20 L 907.20 504.90 L 906.20 507.60 L 905.40 511.30 L 905.20 515.10 L 905.40 518.90 L 906.20 522.70 L 909.70 530.70 L 919.20 546.90 L 929.90 562.20 L 935.70 568.90 L 946.70 579.20 L 952.70 583.80 L 962.00 589.50 L 967.80 592.30 L 973.60 594.70 L 980.30 596.70 L 987.70 598.40 L 999.30 599.80 L 1012.90 599.60 L 1019.80 599.00 L 1027.20 597.80 L 1035.20 596.00 L 1043.90 593.60 Z" fill="#8ddbe0" fill-rule="nonzero" node-id="123" stroke="none" target-height="263.19998" target-width="211.99994" target-x="905.2" target-y="336.6"></path><g node-id="146"><path d="M 384.70 156.50 L 380.20 165.10 L 371.70 179.00 L 323.00 252.70 L 365.50 252.70 L 418.50 172.40 L 423.60 163.50 L 430.40 149.90 L 387.90 149.90 L 384.70 156.50 Z" fill="#9ebcea" fill-rule="nonzero" group-id="2" node-id="127" stroke="none" target-height="102.8" target-width="107.399994" target-x="323" target-y="149.9"></path><path d="M 484.40 85.40 L 441.90 85.40 L 441.90 252.70 L 473.90 252.70 L 473.90 296.50 L 441.90 296.50 L 441.90 351.60 L 484.40 351.60 L 484.40 296.50 L 516.40 296.50 L 516.40 252.70 L 484.40 252.70 L 484.40 85.40 Z" fill="#9ebcea" fill-rule="nonzero" group-id="2" node-id="129" stroke="none" target-height="266.2" target-width="74.50003" target-x="441.9" target-y="85.4"></path><path d="M 598.20 309.80 L 643.60 309.90 L 638.40 309.50 L 634.30 308.60 L 630.40 307.00 L 626.30 304.40 L 623.00 301.50 L 620.10 298.00 L 617.50 293.80 L 615.10 288.70 L 613.20 283.00 L 611.50 276.50 L 609.90 268.60 L 608.80 260.40 L 607.20 241.30 L 606.70 218.50 L 607.30 195.00 L 608.90 176.00 L 610.10 167.70 L 611.60 160.20 L 613.30 153.80 L 615.20 148.20 L 617.60 143.00 L 620.00 139.00 L 623.40 135.00 L 626.50 132.20 L 630.50 129.70 L 634.30 128.10 L 639.20 127.10 L 643.60 126.80 L 598.80 126.80 L 593.80 127.60 L 589.90 128.80 L 585.60 131.10 L 582.30 133.50 L 579.40 136.60 L 577.50 139.00 L 575.10 143.00 L 572.70 148.20 L 570.80 153.80 L 569.20 159.50 L 567.40 168.60 L 565.80 181.30 L 564.60 197.00 L 564.20 212.90 L 564.30 231.00 L 565.00 246.40 L 566.20 260.40 L 568.00 272.20 L 569.80 280.10 L 572.60 288.70 L 575.00 293.80 L 579.00 299.80 L 583.60 304.30 L 588.00 307.10 L 593.80 309.10 L 598.20 309.80 Z" fill="#9ebcea" fill-rule="nonzero" group-id="2" node-id="131" stroke="none" target-height="183.09999" target-width="79.39996" target-x="564.2" target-y="126.8"></path><path d="M 735.80 244.00 L 736.50 230.10 L 736.70 218.50 L 736.30 201.50 L 734.40 179.80 L 733.30 172.00 L 731.00 160.00 L 727.40 146.80 L 723.50 135.80 L 721.10 130.40 L 716.00 120.70 L 713.20 116.20 L 707.00 108.10 L 699.60 100.60 L 695.70 97.40 L 688.80 92.70 L 679.90 88.10 L 670.00 84.60 L 661.00 82.70 L 649.80 81.40 L 601.10 81.30 L 612.10 81.80 L 622.30 83.40 L 632.50 86.20 L 641.20 89.90 L 650.00 95.10 L 657.60 101.10 L 664.50 108.10 L 670.60 116.20 L 676.10 125.50 L 680.90 135.70 L 684.90 146.80 L 688.20 158.90 L 690.80 172.00 L 692.60 186.20 L 693.80 201.50 L 694.20 218.50 L 693.80 235.80 L 692.60 252.00 L 690.80 266.90 L 688.10 280.60 L 685.10 291.90 L 681.50 302.40 L 676.40 313.40 L 671.40 321.80 L 666.60 328.10 L 661.40 333.70 L 655.80 338.60 L 649.70 342.90 L 643.10 346.50 L 636.00 349.60 L 628.30 352.00 L 620.00 353.80 L 610.90 354.90 L 601.10 355.30 L 643.60 355.30 L 653.50 354.90 L 662.50 353.80 L 670.90 352.00 L 678.50 349.60 L 685.70 346.50 L 692.20 342.90 L 698.30 338.60 L 703.90 333.70 L 709.10 328.10 L 713.90 321.80 L 718.90 313.40 L 724.20 301.90 L 727.70 291.90 L 729.30 286.30 L 732.10 273.90 L 734.30 259.60 L 735.80 244.00 Z" fill="#9ebcea" fill-rule="nonzero" group-id="2" node-id="133" stroke="none" target-height="274" target-width="135.60004" target-x="601.1" target-y="81.3"></path><path d="M 840.20 156.50 L 835.60 165.20 L 827.20 179.00 L 778.40 252.80 L 820.90 252.80 L 869.70 179.00 L 878.10 165.20 L 882.70 156.50 L 885.90 149.90 L 843.30 149.90 L 840.20 156.50 Z" fill="#9ebcea" fill-rule="nonzero" group-id="2" node-id="135" stroke="none" target-height="102.90001" target-width="107.5" target-x="778.4" target-y="149.9"></path><path d="M 971.90 252.70 L 939.90 252.70 L 939.90 85.40 L 897.30 85.40 L 897.30 252.70 L 929.30 252.70 L 929.30 296.50 L 897.30 296.50 L 897.30 351.60 L 939.90 351.60 L 939.90 296.50 L 971.90 296.50 L 971.90 252.70 Z" fill="#9ebcea" fill-rule="nonzero" group-id="2" node-id="137" stroke="none" target-height="266.2" target-width="74.60004" target-x="897.3" target-y="85.4"></path><path d="M 441.90 252.70 L 473.90 252.70 L 473.90 296.40 L 441.90 296.40 L 441.90 351.60 L 387.00 351.60 L 387.00 296.50 L 273.50 296.50 L 273.50 257.30 L 390.10 85.40 L 441.90 85.40 Z M 387.90 174.80 L 389.40 149.90 L 387.90 149.90 L 383.00 159.90 L 377.60 169.60 L 371.70 179.00 L 323.00 252.70 L 387.00 252.70 L 387.00 207.60 L 387.90 174.80" fill="#dee8f5" fill-rule="nonzero" group-id="2" node-id="139" stroke="none" target-height="266.2" target-width="200.4" target-x="273.5" target-y="85.4"></path><path d="M 670.60 116.20 L 674.70 122.80 L 678.40 130.00 L 681.80 137.90 L 684.80 146.60 L 687.50 156.10 L 689.80 166.50 L 691.60 177.90 L 693.00 190.30 L 693.90 203.80 L 694.20 218.50 L 693.90 234.00 L 693.00 248.00 L 691.70 260.80 L 689.80 272.40 L 687.60 282.90 L 685.00 292.40 L 682.00 300.90 L 678.80 308.60 L 675.20 315.60 L 671.40 321.70 L 666.60 328.10 L 661.40 333.70 L 655.80 338.60 L 649.70 342.80 L 643.10 346.50 L 636.00 349.50 L 628.30 352.00 L 620.00 353.80 L 610.90 354.90 L 601.10 355.20 L 592.50 354.90 L 584.40 354.00 L 577.00 352.50 L 570.00 350.40 L 563.40 347.90 L 557.20 344.70 L 551.50 341.10 L 546.00 336.90 L 541.00 332.10 L 536.20 326.70 L 531.70 320.60 L 527.30 313.40 L 523.20 305.30 L 519.60 296.40 L 516.40 286.40 L 513.60 275.40 L 511.40 263.20 L 509.70 249.70 L 508.70 234.90 L 508.30 218.50 L 508.60 202.90 L 509.50 188.70 L 510.90 175.80 L 512.70 164.10 L 514.90 153.50 L 517.50 144.00 L 520.40 135.40 L 523.70 127.70 L 527.20 120.80 L 531.10 114.70 L 535.80 108.40 L 541.00 102.80 L 546.60 97.90 L 552.60 93.60 L 559.20 90.00 L 566.30 86.90 L 573.90 84.50 L 582.20 82.70 L 591.30 81.60 L 601.10 81.30 L 609.70 81.60 L 617.70 82.50 L 625.20 84.00 L 632.20 86.10 L 638.70 88.70 L 644.90 91.80 L 650.70 95.50 L 656.20 99.80 L 661.30 104.60 L 666.10 110.10 L 670.60 116.20 Z M 629.40 288.40 L 631.70 281.90 L 633.80 273.60 L 635.50 263.50 L 636.90 251.20 L 637.80 236.30 L 638.20 218.50 L 637.80 200.50 L 636.90 185.50 L 635.50 173.10 L 633.70 162.90 L 631.60 154.70 L 629.40 148.20 L 626.80 142.80 L 623.90 138.30 L 620.80 134.70 L 617.50 131.90 L 613.90 129.70 L 610.00 128.10 L 605.80 127.10 L 601.10 126.80 L 596.30 127.10 L 591.90 128.10 L 588.00 129.70 L 584.40 131.90 L 581.10 134.80 L 578.00 138.40 L 575.20 142.80 L 572.70 148.20 L 570.50 154.70 L 568.50 162.90 L 566.70 173.10 L 565.40 185.50 L 564.50 200.50 L 564.20 218.50 L 564.50 236.50 L 565.40 251.60 L 566.70 264.00 L 568.40 274.10 L 570.40 282.20 L 572.60 288.70 L 575.10 294.00 L 577.90 298.40 L 580.90 302.00 L 584.20 304.80 L 587.90 307.00 L 591.80 308.60 L 596.20 309.60 L 601.10 309.90 L 605.80 309.60 L 610.10 308.60 L 614.00 307.00 L 617.60 304.80 L 621.00 301.90 L 624.00 298.30 L 626.90 293.80 L 629.40 288.40" fill="#dee8f5" fill-rule="nonzero" group-id="2" node-id="141" stroke="none" target-height="273.90002" target-width="185.90002" target-x="508.3" target-y="81.3"></path><path d="M 897.30 252.70 L 929.30 252.70 L 929.30 296.40 L 897.30 296.40 L 897.30 351.60 L 842.40 351.60 L 842.40 296.50 L 729.00 296.50 L 729.00 257.30 L 845.50 85.40 L 897.30 85.40 Z M 843.30 174.80 L 844.80 149.90 L 843.30 149.90 L 838.50 159.90 L 833.10 169.60 L 827.10 179.00 L 778.40 252.70 L 842.40 252.70 L 842.40 207.60 L 843.30 174.80" fill="#dee8f5" fill-rule="nonzero" group-id="2" node-id="143" stroke="none" target-height="266.2" target-width="200.29999" target-x="729" target-y="85.4"></path></g></svg>